# AST/ASF file generated using VICON BodyLanguage
# -----------------------------------------------
:version 1.10
:name VICON
:units
  mass 1.0
  length 0.45
  angle deg
:documentation
   .ast/.asf automatically generated from VICON data using
   VICON BodyBuilder and BodyLanguage model FoxedUp or BRILLIANT.MOD
:root
   order TX TY TZ RX RY RZ
   axis XYZ
   position 0 0 0  
   orientation 0 0 0 
:bonedata
  begin
     id 1 
     name lhipjoint
     direction 0.606768 -0.715223 0.346827 
     length 2.41543 
     axis 0 0 0  XYZ
  end
  begin
     id 2 
     name lfemur
     direction 0.34202 -0.939693 0  
     length 7.2778  
     axis 0 0 20  XYZ
    dof rx ry rz
    limits (-160.0 20.0)
           (-70.0 70.0)
           (-60.0 70.0)
  end
  begin
     id 3 
     name ltibia
     direction 0.34202 -0.939693 0   
     length 7.61811   
     axis 0 0 20   XYZ
    dof rx
    limits (-10.0 170.0)
  end
  begin
     id 4 
     name lfoot
     direction 0.0823924 -0.226371 0.97055   
     length 2.33618   
     axis -90 7.62852e-016 20   XYZ
    dof rx rz
    limits (-45.0 90.0)
           (-70.0 20.0)
  end
  begin
     id 5 
     name ltoes
     direction 1.53554e-011 -4.21934e-011 1   
     length 1.17015   
     axis -90 7.62852e-016 20   XYZ
    dof rx
    limits (-90.0 20.0)
  end
  begin
     id 6 
     name rhipjoint
     direction -0.6077 -0.714582 0.346516   
     length 2.4176  
     axis 0 0 0  XYZ 
  end
  begin
     id 7 
     name rfemur
     direction -0.34202 -0.939693 0   
     length 7.28127   
     axis 0 0 -20   XYZ
    dof rx ry rz
    limits (-160.0 20.0)
           (-70.0 70.0)
           (-70.0 60.0)
  end
  begin
     id 8 
     name rtibia
     direction -0.34202 -0.939693 0   
     length 7.77648   
     axis 0 0 -20   XYZ
    dof rx
    limits (-10.0 170.0)
 end
 begin
     id 9 
     name rfoot
     direction -0.0809463 -0.222398 0.97159   
     length 2.37533  
     axis -90 -7.62852e-016 -20   XYZ
    dof rx rz
    limits (-45.0 90.0)
           (-20.0 70.0)
  end
  begin
     id 10 
     name rtoes
     direction -1.53568e-011 -4.21714e-011 1   
     length 1.18972   
     axis -90 -7.62852e-016 -20   XYZ
    dof rx
    limits (-90.0 20.0)
  end
  begin
     id 11 
     name lowerback
     direction 0.010968 0.991932 -0.126297   
     length 2.21698   
     axis 0 0 0   XYZ
    dof rx ry rz
    limits (-20.0 45.0)
           (-30.0 30.0)
           (-30.0 30.0)
  end
  begin
     id 12 
     name upperback
     direction 0.0167007 0.997503 -0.0686276   
     length 2.22371   
     axis 0 0 0   XYZ
    dof rx ry rz
    limits (-20.0 45.0)
           (-30.0 30.0)
           (-30.0 30.0)
  end
  begin
     id 13 
     name thorax
     direction 0.0111721 0.999885 -0.0102878   
     length 2.25242   
     axis 0 0 0   XYZ
    dof rx ry rz
    limits (-20.0 45.0)
           (-30.0 30.0)
           (-30.0 30.0)
  end
  begin
     id 14 
     name lowerneck
     direction -0.0120265 0.990428 0.137508   
     length 1.57674   
     axis 0 0 0   XYZ
    dof rx ry rz
    limits (-20.0 45.0)
           (-30.0 30.0)
           (-30.0 30.0)
  end
  begin
     id 15 
     name upperneck
     direction 0.0175669 0.998907 0.0433089   
     length 1.5618   
     axis 0 0 0   XYZ
    dof rx ry rz
    limits (-20.0 45.0)
           (-30.0 30.0)
           (-30.0 30.0)
  end
  begin
     id 16
     name head
     direction 0.00754609 0.99997 0.00185367  
     length 1.60579  
     axis 0 0 0   XYZ
    dof rx ry rz
    limits (-20.0 45.0)
           (-30.0 30.0)
           (-30.0 30.0)
  end
  begin
     id 17 
     name lclavicle
     direction 0.885866 0.429166 -0.176231  
     length 3.44967  
     axis 0 0 0   XYZ
    dof ry rz
    limits (-20.0 10.0)
           (0.0 20.0)
  end
  begin
     id 18 
     name lhumerus
     direction 1 -4.48973e-011 -1.90255e-027   
     length 5.20607   
     axis 180 -30 -90   XYZ
    dof rx ry rz
    limits (-60.0 90.0)
           (-90.0 90.0)
           (-90.0 90.0)
  end
  begin
     id 19
     name lradius
     direction 1 -4.48956e-011 9.87925e-027   
     length 3.39961   
     axis 180 -30 -90   XYZ
    dof rx
    limits (-10.0 170.0)
  end
  begin
     id 20
     name lwrist
     direction 1 -4.48985e-011 1.73247e-026   
     length 1.6998   
     axis -9.60847e-015 90 90   XYZ
    dof ry
    limits (-180.0 0.0)
 end
  begin
     id 21 
     name lhand
     direction 1 -4.48798e-011 3.46119e-026   
     length 0.519693   
     axis -2.21073e-014 90 90   XYZ
    dof rx rz
    limits (-90.0 90.0)
           (-45.0 45.0)
  end
  begin
     id 22 
     name lfingers
     direction 1 -4.48938e-011 6.92797e-026   
     length 0.41899   
     axis -4.42155e-014 90 90   XYZ
    dof rx
    limits (0.0 90.0)
  end
  begin
     id 23
     name lthumb
     direction 0.707107 -6.34952e-011 0.707107   
     length 0.601588   
     axis -90 45 6.0103e-014   XYZ
    dof rx rz
    limits (-45.0 45.0)
           (-45.0 45.0)
  end
  begin
     id 24 
     name rclavicle
     direction -0.866736 0.456792 -0.200276   
     length 3.45032  
     axis 0 0 0   XYZ 
    dof ry rz
    limits (-10.0 20.0)
           (-20.0 0.0)
  end
  begin
     id 25 
     name rhumerus
     direction -1 -4.4897e-011 8.65094e-028  
     length 5.32214   
     axis 180 30 90   XYZ
    dof rx ry rz
    limits (-90.0 60.0)
           (-90.0 90.0)
           (-90.0 90.0)
  end
  begin
     id 26 
     name rradius
     direction -1 -4.48987e-011 1.08427e-026   
     length 3.51208   
     axis 180 30 90   XYZ
    dof rx
    limits (-10.0 170.0)
  end
  begin
     id 27 
     name rwrist
     direction -1 -4.48961e-011 1.73222e-026   
     length 1.75604   
     axis -9.60847e-015 -90 -90   XYZ
    dof ry
    limits (-180.0 0.0)
  end
  begin
     id 28
     name rhand
     direction -1 -4.48895e-011 3.46314e-026   
     length 0.586681   
     axis -2.21073e-014 -90 -90   XYZ
    dof rx rz
    limits (-90.0 90.0)
           (-45.0 45.0)
  end
  begin
     id 29
     name rfingers
     direction -1 -4.48968e-011 6.92916e-026   
     length 0.472997   
     axis -4.42155e-014 -90 -90   XYZ
    dof rx
    limits (0.0 90.0)
  end
  begin
     id 30
     name rthumb
     direction -0.707107 -6.34848e-011 0.707107   
     length 0.679133   
     axis -90 -45 -6.0103e-014   XYZ
    dof rx rz
    limits (-45.0 45.0)
           (-45.0 45.0)
  end
:hierarchy
  begin
    root lhipjoint rhipjoint lowerback
    lhipjoint lfemur
    lfemur ltibia
    ltibia lfoot
    lfoot ltoes
    rhipjoint rfemur
    rfemur rtibia
    rtibia rfoot
    rfoot rtoes
    lowerback upperback
    upperback thorax
    thorax lowerneck lclavicle rclavicle
    lowerneck upperneck
    upperneck head
    lclavicle lhumerus
    lhumerus lradius
    lradius lwrist
    lwrist lhand lthumb
    lhand lfingers
    rclavicle rhumerus
    rhumerus rradius
    rradius rwrist
    rwrist rhand rthumb
    rhand rfingers
  end

#!OML:ASF H:\Dans Jumps\Project 1\Capture day 1\Session 1\subject.ASF
:FULLY-SPECIFIED
:DEGREES
1
root 0.71485 17.4326 -14.9295 7.07218 -2.92038 -1.23803
lowerback 2.18523 -0.301131 -0.927963
upperback 4.75873 -0.44083 1.3087
thorax 3.68946 -0.281435 1.86325
lowerneck -12.4552 1.00104 -1.16054
upperneck 30.2831 1.82509 -0.364648
head 11.985 0.626144 0.313355
rclavicle 1.28713e-014 2.38542e-015
rhumerus -27.1865 -13.8022 -80.6836
rradius 25.4304
rwrist 29.8269
rhand -17.8357 -25.9195
rfingers 7.12502
rthumb 8.42887 -55.7313
lclavicle 1.28713e-014 2.38542e-015
lhumerus -21.4959 2.46594 84.5379
lradius 17.8268
lwrist 5.39016
lhand -26.5487 -1.55437
lfingers 7.12502
lthumb 0.0158327 28.4254
rfemur -20.5377 -3.22877 19.2235
rtibia 28.4007
rfoot -13.919 0.458697
rtoes 11.1661
lfemur -18.8112 9.52703 -19.6587
ltibia 25.856
lfoot -13.2311 1.68868
ltoes 2.38123
2
root 0.703148 17.432 -14.931 7.09204 -2.8065 -1.27393
lowerback 2.18007 -0.328402 -0.839072
upperback 4.76453 -0.477949 1.33039
thorax 3.69919 -0.297295 1.83532
lowerneck -12.3956 0.998771 -1.1888
upperneck 30.2839 1.8162 -0.326599
head 11.9722 0.624093 0.330851
rclavicle 3.62782e-015 2.78299e-015
rhumerus -27.0847 -13.8722 -80.6124
rradius 25.4372
rwrist 29.8897
rhand -17.9234 -25.779
rfingers 7.12502
rthumb 8.34422 -55.5942
lclavicle 3.62782e-015 2.78299e-015
lhumerus -21.4892 2.27091 84.698
lradius 17.9086
lwrist 5.62221
lhand -26.5967 -1.82401
lfingers 7.12502
lthumb -0.0305649 28.1557
rfemur -20.5318 -3.20631 19.3071
rtibia 28.3791
rfoot -13.9095 0.332223
rtoes 11.2468
lfemur -18.8733 9.37309 -19.575
ltibia 25.894
lfoot -13.2235 1.82393
ltoes 2.17223
3
root 0.692979 17.432 -14.9298 7.10234 -2.68996 -1.30495
lowerback 2.17753 -0.363199 -0.755937
upperback 4.76404 -0.525472 1.366
thorax 3.70146 -0.318742 1.82487
lowerneck -12.4279 1.00216 -1.20692
upperneck 30.3595 1.82202 -0.309234
head 12.0087 0.625953 0.341914
rclavicle 5.71506e-015 5.86415e-015
rhumerus -27.0017 -13.8326 -80.5394
rradius 25.4884
rwrist 29.801
rhand -18.0717 -25.7866
rfingers 7.12502
rthumb 8.20113 -55.6075
lclavicle 5.71506e-015 5.86415e-015
lhumerus -21.5009 2.13109 84.8778
lradius 17.9519
lwrist 5.6985
lhand -26.3384 -1.61365
lfingers 7.12502
lthumb 0.218945 28.366
rfemur -20.4918 -3.21889 19.3769
rtibia 28.3356
rfoot -13.9082 0.257121
rtoes 11.2993
lfemur -18.9099 9.20587 -19.4974
ltibia 25.9382
lfoot -13.2066 1.98286
ltoes 2.00263
4
root 0.683545 17.4322 -14.9284 7.11728 -2.57644 -1.39618
lowerback 2.18052 -0.393948 -0.600102
upperback 4.7462 -0.567848 1.4108
thorax 3.68154 -0.334963 1.78322
lowerneck -12.3666 0.999216 -1.22279
upperneck 30.3833 1.81478 -0.289525
head 12.005 0.623464 0.350715
rclavicle -2.18663e-015 3.77691e-015
rhumerus -26.9687 -13.7803 -80.4718
rradius 25.5936
rwrist 29.6252
rhand -18.0337 -25.9593
rfingers 7.12502
rthumb 8.23781 -55.7787
lclavicle -2.18663e-015 3.77691e-015
lhumerus -21.5341 1.9206 85.0623
lradius 17.9818
lwrist 5.66406
lhand -26.3206 -1.96109
lfingers 7.12502
lthumb 0.236124 28.0185
rfemur -20.4615 -3.20831 19.5085
rtibia 28.2925
rfoot -13.8798 0.179921
rtoes 11.3964
lfemur -18.9441 9.08185 -19.3549
ltibia 25.9805
lfoot -13.2558 2.24288
ltoes 1.62498
5
root 0.674008 17.4324 -14.9266 7.12565 -2.47086 -1.4551
lowerback 2.17546 -0.423653 -0.477324
upperback 4.74308 -0.608559 1.44369
thorax 3.68155 -0.351522 1.74779
lowerneck -12.3302 0.998152 -1.23931
upperneck 30.4068 1.81017 -0.267479
head 12.0064 0.62227 0.361059
rclavicle 7.15625e-015 -7.55382e-015
rhumerus -26.9059 -13.7515 -80.4083
rradius 25.6696
rwrist 29.4829
rhand -18.0843 -26.0347
rfingers 7.12502
rthumb 8.189 -55.856
lclavicle 7.15625e-015 -7.55382e-015
lhumerus -21.5442 1.74349 85.2371
lradius 18.0106
lwrist 5.66233
lhand -26.2351 -2.15052
lfingers 7.12502
lthumb 0.318651 27.829
rfemur -20.4206 -3.2033 19.6044
rtibia 28.2464
rfoot -13.8619 0.112955
rtoes 11.5118
lfemur -18.968 8.95293 -19.2479
ltibia 26.0189
lfoot -13.2863 2.49182
ltoes 1.31559
6
root 0.6649 17.4328 -14.9241 7.13099 -2.37704 -1.50953
lowerback 2.16589 -0.450472 -0.358274
upperback 4.7419 -0.645389 1.47348
thorax 3.68591 -0.36625 1.71126
lowerneck -12.2886 0.996442 -1.25678
upperneck 30.4203 1.8041 -0.243814
head 12.0028 0.620637 0.371886
rclavicle -1.12313e-014 1.45113e-014
rhumerus -26.8421 -13.7247 -80.3462
rradius 25.7434
rwrist 29.3192
rhand -18.14 -26.1236
rfingers 7.12502
rthumb 8.1352 -55.947
lclavicle -1.12313e-014 1.45113e-014
lhumerus -21.5482 1.5664 85.4131
lradius 18.0337
lwrist 5.6382
lhand -26.1376 -2.30321
lfingers 7.12502
lthumb 0.412807 27.6761
rfemur -20.3731 -3.19716 19.6922
rtibia 28.1957
rfoot -13.8433 0.0614868
rtoes 11.6496
lfemur -18.9821 8.83889 -19.1469
ltibia 26.0601
lfoot -13.3332 2.79121
ltoes 0.964336
7
root 0.656011 17.433 -14.9213 7.13723 -2.29199 -1.55894
lowerback 2.15003 -0.473122 -0.244357
upperback 4.74047 -0.676633 1.50048
thorax 3.69332 -0.378325 1.67476
lowerneck -12.2457 0.993511 -1.27065
upperneck 30.4257 1.79577 -0.221857
head 11.9956 0.618295 0.381091
rclavicle -4.17448e-015 9.93923e-015
rhumerus -26.7834 -13.6979 -80.2843
rradius 25.819
rwrist 29.1399
rhand -18.1961 -26.207
rfingers 7.12502
rthumb 8.08107 -56.0325
lclavicle -4.17448e-015 9.93923e-015
lhumerus -21.548 1.40244 85.5875
lradius 18.0616
lwrist 5.59959
lhand -26.0375 -2.40819
lfingers 7.12502
lthumb 0.509537 27.5709
rfemur -20.3299 -3.19127 19.7737
rtibia 28.1511
rfoot -13.8288 0.0180233
rtoes 11.794
lfemur -18.9873 8.73515 -19.0525
ltibia 26.0937
lfoot -13.3955 3.1399
ltoes 0.547447
8
root 0.647199 17.4333 -14.9182 7.1451 -2.21318 -1.59798
lowerback 2.12792 -0.492087 -0.144112
upperback 4.73781 -0.702935 1.52497
thorax 3.7029 -0.388366 1.64332
lowerneck -12.2068 0.988955 -1.28297
upperneck 30.4268 1.78461 -0.199384
head 11.9876 0.614976 0.389846
rclavicle -1.09332e-015 -9.34288e-015
rhumerus -26.7249 -13.6836 -80.2173
rradius 25.8821
rwrist 28.9684
rhand -18.2695 -26.2699
rfingers 7.12502
rthumb 8.01028 -56.0981
lclavicle -1.09332e-015 -9.34288e-015
lhumerus -21.5396 1.26647 85.7581
lradius 18.0877
lwrist 5.55391
lhand -25.9315 -2.45675
lfingers 7.12502
lthumb 0.611882 27.5221
rfemur -20.2892 -3.18934 19.8441
rtibia 28.1087
rfoot -13.8192 -0.0201007
rtoes 11.9299
lfemur -18.9872 8.6386 -18.97
ltibia 26.1241
lfoot -13.471 3.52903
ltoes 0.106389
9
root 0.638343 17.4336 -14.9147 7.15373 -2.13922 -1.62689
lowerback 2.10363 -0.509018 -0.060475
upperback 4.73259 -0.726463 1.54773
thorax 3.71111 -0.397559 1.61943
lowerneck -12.1685 0.982629 -1.29978
upperneck 30.4236 1.7702 -0.171143
head 11.9779 0.610469 0.401084
rclavicle 6.01324e-015 -3.18055e-015
rhumerus -26.6716 -13.6709 -80.1473
rradius 25.9366
rwrist 28.8061
rhand -18.3382 -26.3282
rfingers 7.12502
rthumb 7.94396 -56.1589
lclavicle 6.01324e-015 -3.18055e-015
lhumerus -21.5282 1.15048 85.9254
lradius 18.1115
lwrist 5.52423
lhand -25.8393 -2.46691
lfingers 7.12502
lthumb 0.700937 27.5117
rfemur -20.2507 -3.19289 19.9048
rtibia 28.07
rfoot -13.8163 -0.0556983
rtoes 12.0441
lfemur -18.9808 8.55027 -18.8985
ltibia 26.1506
lfoot -13.5571 3.9461
ltoes -0.325792
10
root 0.629393 17.434 -14.9111 7.16321 -2.06081 -1.6474
lowerback 2.07948 -0.525182 0.0103996
upperback 4.72264 -0.748851 1.56881
thorax 3.7144 -0.406561 1.60097
lowerneck -12.1338 0.972725 -1.31373
upperneck 30.4238 1.75025 -0.143468
head 11.9704 0.603706 0.410909
rclavicle -1.49089e-014 -4.96962e-015
rhumerus -26.6243 -13.6712 -80.0714
rradius 25.9761
rwrist 28.6634
rhand -18.4152 -26.3676
rfingers 7.12502
rthumb 7.86965 -56.2011
lclavicle -1.49089e-014 -4.96962e-015
lhumerus -21.5197 1.05832 86.0875
lradius 18.1395
lwrist 5.51431
lhand -25.7557 -2.43218
lfingers 7.12502
lthumb 0.781688 27.5461
rfemur -20.2139 -3.20704 19.9584
rtibia 28.0348
rfoot -13.821 -0.0924072
rtoes 12.1328
lfemur -18.9684 8.4656 -18.8349
ltibia 26.1697
lfoot -13.6463 4.37636
ltoes -0.678434
11
root 0.620261 17.4343 -14.9076 7.17386 -1.97376 -1.65611
lowerback 2.05312 -0.541835 0.0659932
upperback 4.71104 -0.771749 1.58614
thorax 3.71735 -0.416275 1.58717
lowerneck -12.1069 0.960354 -1.3211
upperneck 30.4263 1.72542 -0.116136
head 11.9656 0.595429 0.418882
rclavicle -5.56597e-015 6.75868e-015
rhumerus -26.5809 -13.6753 -79.9971
rradius 26.0102
rwrist 28.5308
rhand -18.4825 -26.4041
rfingers 7.12502
rthumb 7.80463 -56.2401
lclavicle -5.56597e-015 6.75868e-015
lhumerus -21.505 1.01059 86.2362
lradius 18.159
lwrist 5.49573
lhand -25.7042 -2.42663
lfingers 7.12502
lthumb 0.831457 27.5515
rfemur -20.1797 -3.23127 20.0011
rtibia 28.0024
rfoot -13.8303 -0.131554
rtoes 12.2142
lfemur -18.9527 8.38736 -18.7834
ltibia 26.1795
lfoot -13.7236 4.81303
ltoes -0.916481
